<?xml version="1.0" standalone="no"?>
<!DOCTYPE svg PUBLIC "-//W3C//DTD SVG 20010904//EN"
 "http://www.w3.org/TR/2001/REC-SVG-20010904/DTD/svg10.dtd">
<svg version="1.0" xmlns="http://www.w3.org/2000/svg"
 width="512.000000" height="512.000000" viewBox="0 0 512.000000 512.000000"
 preserveAspectRatio="xMidYMid meet">

<g transform="translate(0.000000,512.000000) scale(0.100000,-0.100000)"
fill="#000000" stroke="none">
<path d="M655 5109 c-243 -41 -460 -202 -570 -424 -88 -179 -80 25 -80 -2125
0 -2150 -8 -1946 80 -2125 76 -153 198 -275 350 -350 179 -88 -25 -80 2125
-80 2150 0 1946 -8 2125 80 153 76 275 198 350 350 88 179 80 -25 80 2125 0
2150 8 1946 -80 2125 -76 153 -197 274 -350 350 -178 87 29 79 -2095 81 -1037
1 -1907 -2 -1935 -7z m3337 -1447 c63 -31 126 -96 157 -162 l26 -55 0 -885 0
-885 -26 -55 c-31 -66 -94 -131 -157 -162 l-47 -23 -1385 0 -1385 0 -47 23
c-63 31 -126 96 -157 162 l-26 55 0 880 c0 825 1 883 18 927 34 88 116 167
200 194 34 10 300 12 1412 11 l1370 -2 47 -23z"/>
<path d="M1386 3441 c166 -152 1167 -1031 1174 -1031 8 0 1043 909 1170 1026
12 12 -171 14 -1170 14 -671 0 -1180 -4 -1174 -9z"/>
<path d="M1180 2550 c0 -735 0 -751 19 -738 57 40 880 684 881 689 0 5 -770
691 -872 777 l-28 24 0 -752z"/>
<path d="M3490 2905 c-245 -217 -446 -398 -447 -402 -1 -4 199 -164 445 -355
l447 -347 3 375 c1 205 1 543 0 749 l-3 374 -445 -394z"/>
<path d="M1840 2007 l-425 -332 572 -3 c314 -1 830 -1 1145 0 l574 3 -334 260
c-183 143 -375 293 -427 332 l-93 73 -106 -95 c-59 -52 -120 -102 -136 -110
-63 -32 -94 -17 -247 121 -51 46 -94 84 -95 83 -2 0 -194 -150 -428 -332z"/>
</g>
</svg>
