<?xml version="1.0" standalone="no"?>
<!DOCTYPE svg PUBLIC "-//W3C//DTD SVG 20010904//EN"
 "http://www.w3.org/TR/2001/REC-SVG-20010904/DTD/svg10.dtd">
<svg version="1.0" xmlns="http://www.w3.org/2000/svg"
 width="512.000000" height="513.000000" viewBox="0 0 512.000000 513.000000"
 preserveAspectRatio="xMidYMid meet">

<g transform="translate(0.000000,513.000000) scale(0.100000,-0.100000)"
fill="#000000" stroke="none">
<path d="M675 5121 c-16 -3 -30 -10 -29 -15 2 -13 2198 -2305 2206 -2303 5 1
95 93 200 203 106 111 271 283 366 382 l172 180 -1286 742 c-708 409 -1312
755 -1343 770 -91 44 -199 60 -286 41z"/>
<path d="M360 4910 c-12 -18 -33 -62 -46 -98 l-24 -67 0 -2175 c0 -1550 3
-2186 11 -2215 14 -51 60 -146 69 -143 13 6 2265 2360 2265 2368 0 5 -493 522
-1095 1150 -602 627 -1109 1157 -1126 1176 l-32 35 -22 -31z"/>
<path d="M3457 2995 l-398 -415 367 -382 c202 -211 386 -403 409 -427 l42 -43
389 223 c443 255 478 282 542 416 36 77 37 80 37 198 0 118 -1 121 -37 198
-65 135 -98 160 -549 420 -218 125 -397 227 -400 227 -2 0 -183 -187 -402
-415z"/>
<path d="M1728 1192 l-1118 -1167 48 -12 c68 -16 147 -14 222 5 52 14 327 168
1380 776 723 417 1322 764 1331 770 14 9 -41 71 -358 401 -205 215 -377 391
-381 392 -4 1 -510 -524 -1124 -1165z"/>
</g>
</svg>
